<svg version="1.1" width="99.999863" id="svg1" height="100" xmlns="http://www.w3.org/2000/svg">
  <metadata id="metadata3">
    
      
        
        obligation
        
          
            
            symbol
            signs_and_symbols
          
        
        
          
            yves GUILLOU
          
        
        
          
            yves GUILLOU
          
        
        
          
            yves GUILLOU
          
        
        
        image/svg+xml
        
        
        en
      
      
        
        
        
      
    
  </metadata>
  
  <defs id="defs2">
    <marker viewBox="0 0 10 10" refY="5" refX="0" orient="auto" markerWidth="4" markerUnits="strokeWidth" markerHeight="3" id="ArrowEnd">
      <path id="path4" d="M 0,0 10,5 0,10 z"></path>
    </marker>
    <marker viewBox="0 0 10 10" refY="5" refX="10" orient="auto" markerWidth="4" markerUnits="strokeWidth" markerHeight="3" id="ArrowStart">
      <path id="path6" d="M 10,0 0,5 10,10 z"></path>
    </marker>
  </defs>
  <g transform="matrix(0.70554873,0,0,0.70554873,-8.1276237,-8.1274863)" id="g7">
    <path style="fill:#000000;stroke:none" id="path8" d="m 84.4626,153.222 c 39.1214,-1.146 69.9064,-33.791 68.7594,-72.9118 -1.146,-39.121 -33.791,-69.9064 -72.9117,-68.7598 -39.121,1.1467 -69.9064,33.791 -68.7597,72.9121 1.1466,39.1205 33.791,69.9065 72.912,68.7595 z"></path>
    <path style="fill:#004cff;stroke:#ffffff;stroke-width:3" id="path9" d="M 84.2891,148.923 C 121.063,147.846 150.001,117.16 148.923,80.3861 147.846,43.6122 117.16,14.674 80.3859,15.7517 43.6121,16.8295 14.6738,47.5154 15.7517,84.2892 16.8295,121.063 47.5153,150.001 84.2891,148.923 z"></path>
  </g>
  <g transform="matrix(0.70554873,0,0,0.70554873,-8.1276237,-8.1274863)" id="g10">
    <path style="fill:#ffffff;stroke:none" id="path11" d="m 94.4896,37.6377 c 5.3178,3.946 1.7158,10.7545 1.4624,15.7641 l -0.1394,12.3094 c 0.5082,3.6866 5.0734,5.8537 6.9544,8.5999 3.087,2.9108 4.289,6.377 7.079,9.3967 1.252,1.7641 1.428,4.36 3.754,5.1922 4.507,0.168 8.831,0.9416 12.3,3.2411 1.414,3.8602 1.725,7.6528 2.045,11.7449 l -8.691,0.455 c -0.658,1.42 1.579,2.655 0.12,4.098 -7.229,2.513 -13.797,3.706 -22.1786,4.452 -1.4111,-0.359 -2.9076,-0.215 -4.4893,0.432 -5.9443,-1.427 -11.5357,-4.464 -17.9272,-4.077 -1.8406,2.055 1.249,5.066 -1.7146,6.353 -5.3299,-0.944 -10.5691,1.21 -15.3875,0.651 -0.6675,1.12 -1.6052,-0.153 -2.5931,0.276 1.7707,-7.855 -7.2101,-13.895 -3.358,-22.4111 l 0.9351,-2.2283 c 0.3918,-7.1145 0.7454,-15.5285 -1.8469,-22.0553 -0.9374,-4.6746 -1.3544,-8.6642 -3.7765,-12.795 0.1706,-1.0054 -0.5789,-2.6842 0.9146,-2.9281 8.2584,-1.5426 15.6816,-0.8598 23.2256,-2.8816 l -0.457,-15.5934 0.6645,-1.2199 c 7.4554,1.7824 14.9786,2.4623 23.1045,3.2244 z"></path>
    <path style="fill:#004cff;stroke:none" id="path12" d="m 86.1693,40.4827 c 2.2814,-0.6671 5.2948,-0.2552 7.2409,1.2885 0.9582,1.9727 -0.2651,4.6098 -0.5122,6.4178 0.7143,0.4792 -0.1706,2.227802 -0.156,2.727602 0.7902,6.4796 -1.254,14.020798 1.3032,19.348298 3.2514,1.7055 4.274,5.8773 8.1278,7.6652 2.217,3.9368 5.127,7.653 6.843,11.6044 4.836,4.5604 16.711,0.1106 15.204,10.159 0.221,0.6935 1.432,1.0585 0.961,2.0725 -2.342,-1.432 -9.122,2.769 -8.493,-3.0523 -5.164,-5.5511 -12.273,-2.3414 -18.8205,-3.8502 -4.3769,-5.9744 -10.7943,-9.888 -16.2151,-13.931 -5.3263,-7.6472 -4.7021,-17.0696 -5.3627,-25.9541 -0.7465,-1.5788 -2.087,-2.9401 -2.2397,-4.7363 1.3822,-4.0423 -0.4109,-7.1911 0.354,-11.8156 3.9218,0.6855 8.0347,1.0652 11.7653,2.0562 z"></path>
    <path style="fill:#004cff;stroke:none" id="path13" d="m 115.406,102.753 c 0.559,1.985 0.176,2.596 -0.371,4.413 -3.542,2.004 -8.934,2.363 -13.618,3 -5.3827,0.658 -10.3421,-1.298 -15.378,-2.451 -8.1522,-1.661 -17.7628,-1.88 -26.9296,-0.611 l -0.0293,-0.999 c 10.9367,-2.322 23.0989,-0.377 33.8852,2.408 6.5207,0.609 15.0197,0.46 21.1407,-2.32 0.953,-1.629 0.001,-3.402 -0.94,-4.775 -2.196,-3.237 -6.976,-2.4965 -10.072,-2.3058 l -0.823,-0.7762 c 2.784,-0.5818 6.268,-1.1842 8.911,0.239 2.028,0.9409 2.878,2.617 4.224,4.178 z"></path>
  </g>
</svg>
