<svg version="1.1" width="100" id="svg1" height="100.00014" xmlns="http://www.w3.org/2000/svg">
  <metadata id="metadata3">
    
      
        
        obligation
        
          
            
            symbol
            signs_and_symbols
          
        
        
          
            yves GUILLOU
          
        
        
          
            yves GUILLOU
          
        
        
          
            yves GUILLOU
          
        
        
        image/svg+xml
        
        
        en
      
      
        
        
        
      
    
  </metadata>
  
  <defs id="defs2">
    <marker viewBox="0 0 10 10" refY="5" refX="0" orient="auto" markerWidth="4" markerUnits="strokeWidth" markerHeight="3" id="ArrowEnd">
      <path id="path4" d="M 0,0 10,5 0,10 z"></path>
    </marker>
    <marker viewBox="0 0 10 10" refY="5" refX="10" orient="auto" markerWidth="4" markerUnits="strokeWidth" markerHeight="3" id="ArrowStart">
      <path id="path6" d="M 10,0 0,5 10,10 z"></path>
    </marker>
  </defs>
  <g transform="matrix(0.7055497,0,0,0.7055497,-8.1276348,-8.1274974)" id="g7">
    <path style="fill:#000000;stroke:none" id="path8" d="m 84.4626,153.222 c 39.1214,-1.146 69.9064,-33.791 68.7594,-72.9119 -1.146,-39.121 -33.791,-69.9063 -72.9117,-68.7597 -39.121,1.1466 -69.9064,33.791 -68.7597,72.912 1.1466,39.1206 33.791,69.9066 72.912,68.7596 z"></path>
    <path style="fill:#004cff;stroke:#ffffff;stroke-width:3" id="path9" d="M 84.2891,148.923 C 121.063,147.846 150.001,117.16 148.923,80.386 147.846,43.6122 117.16,14.6739 80.386,15.7517 43.6121,16.8295 14.6738,47.5154 15.7517,84.2892 16.8295,121.063 47.5153,150.001 84.2891,148.923 z"></path>
  </g>
  <g transform="matrix(0.7055497,0,0,0.7055497,-8.1276348,-8.1274974)" id="g10">
    <path style="fill:#ffffff;stroke:none" id="path11" d="m 102.697,42.2927 c 2.565,2.28 5.32,5.415 6.46,8.7399 0.95,5.7 0.855,12.065 1.805,17.48 2.09,2.28 5.32,1.33 6.555,4.18 0.38,2.09 -1.235,3.515 -2.66,4.275 -1.52,0.95 -3.99,-0.19 -4.845,1.805 0.095,1.14 0.285,2.09 1.14,2.755 1.235,-0.0951 2.28,0.0949 2.945,1.1399 0.475,4.18 -2.09,7.79 -2.47,11.685 -2.185,4.275 0.095,11.4945 -6.84,10.9245 -1.235,2.28 -0.665,3.705 -1.615,6.175 -1.14,5.035 -1.425,9.88 -5.8896,13.395 -3.4199,1.995 -6.3649,5.795 -10.0699,6.65 -7.79,1.33 -15.96,-1.52 -21.1849,-7.505 -1.805,-1.52 -3.8,-3.325 -5.035,-5.32 -2.375,-4.56 -1.425,-9.69 -3.61,-14.345 -1.71,-1.045 -3.8,-0.57 -4.56,-2.755 0,-2.5645 -1.71,-4.5595 -1.425,-7.2195 -0.57,-1.33 -1.52,-2.755 -1.14,-4.18 -0.95,-3.705 -1.805,-6.84 -1.805,-10.6399 0.76,-1.615 4.94,0.285 3.705,-2.565 0.665,-1.425 -0.095,-3.23 -1.615,-3.61 -1.995,0.855 -2.565,-1.52 -4.37,-1.14 -1.52,-1.52 0,-3.515 0.475,-5.035 1.9,-0.095 4.465,0.285 5.89,-1.33 2.85,-2.09 -0.665,-5.225 1.425,-7.6 0.19,-2.945 1.14,-5.51 1.14,-8.6449 1.71,-3.04 0.76,-7.695 4.56,-9.31 l 2.270175,-1.173515 c 8.265,-1.995 14.449725,-4.906485 23.474725,-3.196485 5.985,0.285 12.4449,2.66 17.2895,6.365 z"></path>
    <path style="fill:#004cff;stroke:none" id="path12" d="m 90.1575,76.3026 c 2.47,-0.19 4.465,0.57 6.4599,-0.665 6.0796,0.38 11.9696,-4.56 17.9546,-1.805 -0.19,1.33 -1.805,0.95 -2.47,1.995 -1.71,-1.425 -3.8,-1.045 -5.7,-0.475 -1.52,1.52 0.095,3.325 -1.425,4.8449 1.14,1.14 -0.855,3.705 1.425,4.275 1.9,0.665 3.23,-1.805 4.75,0 -2.28,5.32 -3.23,11.4 -3.895,17.0995 -0.095,1.33 -1.425,1.045 -2.28,1.425 -0.95,-0.19 -1.995,-1.14 -3.135,-0.475 -1.9946,1.33 0,3.515 -0.95,5.225 -0.76,4.085 -1.8996,8.075 -3.4196,11.875 -5.0349,4.75 -9.8799,11.59 -18.7149,8.645 -5.795,-2.185 -12.35,-6.84 -15.1999,-12.54 -1.045,-4.465 -2.565,-8.74 -3.04,-13.395 -0.855,-1.33 -2.755,-0.285 -3.8,-1.14 -2.28,-6.1745 -3.895,-12.9195 -5.7,-18.9994 0.19,-1.235 1.71,-0.95 2.47,-0.665 0,0.8549 0.95,1.2349 1.33,1.8049 1.045,0.475 1.425,-0.665 2.09,-1.1399 l -0.665,-9.12 c -1.995,-2.09 -6.27,0.57 -7.505,-2.28 2.375,-2.185 4.56,0.285 7.22,0.475 11.3999,2.375 21.8499,7.79 34.1999,5.035 z"></path>
    <path style="fill:#004cff;stroke:none" id="path13" d="m 74.6725,73.0726 c 6.745,0.855 13.395,0.475 20.52,-0.38 1.8049,0.285 5.1295,-1.14 5.9845,0.665 -5.6995,1.425 -11.1145,1.615 -17.3845,1.805 -7.98,0.095 -15.295,-2.565 -22.9899,-3.895 -0.19,-0.57 0.19,-1.045 0.665,-1.14 4.56,0.665 9.1199,1.33 13.2049,2.945 z"></path>
  </g>
</svg>
