<svg version="1.1" width="100" id="svg1" height="100" xmlns="http://www.w3.org/2000/svg">
  <metadata id="metadata3767">
    
      
        
        obligation
        
          
            
            symbol
            signs_and_symbols
          
        
        
          
            yves GUILLOU
          
        
        
          
            yves GUILLOU
          
        
        
          
            yves GUILLOU
          
        
        
        image/svg+xml
        
        
        en
      
      
        
        
        
      
    
  </metadata>
  
  <defs id="defs2">
    <marker viewBox="0 0 10 10" refY="5" refX="0" orient="auto" markerWidth="4" markerUnits="strokeWidth" markerHeight="3" id="ArrowEnd">
      <path id="path4" d="M 0,0 10,5 0,10 z"></path>
    </marker>
    <marker viewBox="0 0 10 10" refY="5" refX="10" orient="auto" markerWidth="4" markerUnits="strokeWidth" markerHeight="3" id="ArrowStart">
      <path id="path6" d="M 10,0 0,5 10,10 z"></path>
    </marker>
  </defs>
  <g transform="matrix(0.7055502,0,0,0.70554873,-8.1277111,-8.1274859)" id="g7">
    <path style="fill:#000000;stroke:none" id="path8" d="M 84.4627,153.222 C 123.584,152.076 154.369,119.431 153.222,80.3102 152.076,41.1892 119.431,10.4038 80.3104,11.5504 41.1894,12.6971 10.404,45.3414 11.5507,84.4625 c 1.1466,39.1205 33.791,69.9065 72.912,68.7595 z"></path>
    <path style="fill:#004cff;stroke:#ffffff;stroke-width:3" id="path9" d="M 84.2892,148.923 C 121.063,147.846 150.001,117.16 148.924,80.3861 147.846,43.6122 117.16,14.674 80.386,15.7517 43.6122,16.8295 14.6738,47.5154 15.7517,84.2892 16.8296,121.063 47.5154,150.001 84.2892,148.923 z"></path>
  </g>
  <path id="path3982" d="m 30,30 c -11.045696,0 -20,8.954305 -20,20 0,11.045695 8.954304,20 20,20 l 6.666667,0 c 3.681898,0 8.666333,-2.985101 8.666333,-6.667 0,-3.681898 0.985101,-4.666 4.667,-4.666 3.681899,0 4.667,0.984102 4.667,4.666 0,3.681899 4.984435,6.667 8.666333,6.667 L 70,70 C 81.045695,70 90,61.045695 90,50 90,38.954305 81.045695,30 70,30 z m 0,3.333333 c 9.204745,0 16.666667,7.461922 16.666667,16.666667 0,9.204745 -7.461922,16.666667 -16.666667,16.666667 -9.204745,0 -16.666667,-7.461922 -16.666667,-16.666667 0,-9.204745 7.461922,-16.666667 16.666667,-16.666667 z m 40,0 c 9.204745,0 16.666667,7.461922 16.666667,16.666667 0,9.204745 -7.461922,16.666667 -16.666667,16.666667 -9.204745,0 -16.666667,-7.461922 -16.666667,-16.666667 0,-9.204745 7.461922,-16.666667 16.666667,-16.666667 z" style="fill:#ffffff"></path>
  <path transform="matrix(1.4358859,0,0,1.3104201,-17.659576,-8.9384452)" d="m 42.477547,44.976757 a 9.2857895,10.174854 0 1 1 -18.571579,0 9.2857895,10.174854 0 1 1 18.571579,0 z" id="path3937" style="fill:#ffffff"></path>
  <path transform="matrix(1.2382868,0,0,1.1944537,-11.834857,-14.106136)" d="m 76.854723,53.669838 a 10.767565,11.162704 0 1 1 -21.53513,0 10.767565,11.162704 0 1 1 21.53513,0 z" id="path3961" style="fill:#ffffff"></path>
</svg>
