<svg version="1.1" width="99.999794" id="svg1" height="100" xmlns="http://www.w3.org/2000/svg">
  <metadata id="metadata3">
    
      
        
        obligation
        
          
            
            symbol
            signs_and_symbols
          
        
        
          
            yves GUILLOU
          
        
        
          
            yves GUILLOU
          
        
        
          
            yves GUILLOU
          
        
        
        image/svg+xml
        
        
        en
      
      
        
        
        
      
    
  </metadata>
  
  <defs id="defs2">
    <marker viewBox="0 0 10 10" refY="5" refX="0" orient="auto" markerWidth="4" markerUnits="strokeWidth" markerHeight="3" id="ArrowEnd">
      <path id="path4" d="M 0,0 10,5 0,10 z"></path>
    </marker>
    <marker viewBox="0 0 10 10" refY="5" refX="10" orient="auto" markerWidth="4" markerUnits="strokeWidth" markerHeight="3" id="ArrowStart">
      <path id="path6" d="M 10,0 0,5 10,10 z"></path>
    </marker>
  </defs>
  <g transform="matrix(0.70554873,0,0,0.70554873,-8.1276942,-8.1274863)" id="g7">
    <path style="fill:#000000;stroke:none" id="path8" d="M 84.4627,153.222 C 123.584,152.076 154.369,119.431 153.222,80.3102 152.076,41.1892 119.431,10.4038 80.3104,11.5504 41.1894,12.6971 10.404,45.3414 11.5507,84.4625 c 1.1466,39.1205 33.791,69.9065 72.912,68.7595 z"></path>
    <path style="fill:#004cff;stroke:#ffffff;stroke-width:3" id="path9" d="M 84.2892,148.923 C 121.063,147.846 150.001,117.16 148.924,80.3861 147.846,43.6122 117.16,14.674 80.386,15.7517 43.6122,16.8295 14.6738,47.5154 15.7517,84.2892 16.8296,121.063 47.5154,150.001 84.2892,148.923 z"></path>
  </g>
  <g transform="matrix(0.70554873,0,0,0.70554873,-8.1276942,-8.1274863)" id="g10">
    <path style="fill:#ffffff;stroke:none" id="path11" d="m 96.9879,43.1377 c 6.0181,0.524 11.5181,3.8643 16.9981,6.5049 7.751,8.4765 5.942,21.8354 2.934,31.8278 -1.665,1.2493 -0.989,3.8306 -2.767,4.5831 -1.339,5.5416 -7.21,10.0154 -10.894,14.0255 0.64,4.783 -0.651,8.522 2.259,12.239 -0.241,2.008 1.711,3.751 0.467,5.688 -9.2051,3.372 -19.445,5.573 -29.4466,5.666 -1.5169,-0.556 0.3035,-6.712 -3.9185,-3.987 -8.0877,0.537 -16.2579,1.677 -24.1545,1.908 -3.4271,-7.703 -2.4444,-15.135 -2.6935,-23.6311 -1.2834,-13.0681 0.6524,-25.5301 2.4735,-38.4891 0.744,-1.9225 2.5813,-0.6758 3.5897,-0.4054 2.0079,0.2413 3.9807,-0.7169 5.8209,0.6299 0.5939,-0.2175 1.4082,0.2587 1.6846,-0.5497 -1.3609,-2.061 -3.504,-3.4989 -3.0891,-6.4122 2.3762,-7.673 11.2929,-7.2339 17.2054,-10.3085 2.2078,0.2354 5.4683,-1.1608 7.682,-0.7254 5.3772,-0.8579 9.8958,-0.29 14.9288,0.763 l 0.9202,0.6732 z"></path>
    <path style="fill:#004cff;stroke:none" id="path12" d="m 102.197,46.7867 c 1.779,-0.7523 2.43852,1.524329 4.02652,1.077629 4.163,2.0788 7.21848,3.694971 9.14948,8.140371 l 0.799,-0.0234 -0.485,0.5144 c 1.296,3.2634 1.896,6.6474 1.71,10.5544 -4.901,0.0437 -9.522,-0.6212 -14.144,-1.2861 -3.895,0.2142 -8.3195,-0.5566 -12.309,-0.1395 -2.0873,0.4613 -1.7018,-3.4516 -3.1602,-2.0083 L 87.7545,62.6167 C 82.9862,60.3555 78.2824,60.2932 73.2347,58.7405 l -0.4851,0.5144 -0.5232,-0.785 c -4.0071,-0.1828 -10.1605,1.4982 -13.2852,-2.7121 -0.7407,-1.3788 0.4265,-2.5135 0.3884,-3.813 4.5222,-6.135 12.5423,-5.5698 18.9809,-7.7594 8.3964,-0.2461 16.3047,-0.0777 23.8865,2.6013 z"></path>
    <path style="fill:#004cff;stroke:none" id="path13" d="m 86.7901,63.8454 c 2.8014,3.4195 0.2198,7.4968 0.8221,10.9807 0.3321,1.0907 -0.2237,2.6078 -1.6202,2.7487 -1.12,-0.6674 -3.1869,0.4935 -3.8277,-0.8882 -0.2936,-3.1929 0.4888,-7.2174 -1.9658,-9.0464 -0.4881,0.4146 -1.2878,0.4379 -1.3643,1.2406 1.4785,2.6577 0.4464,4.989 1.1252,7.6702 -0.2413,2.0081 -0.3738,4.3128 0.4903,6.4886 3.5249,0.797 2.0497,-5.1624 6.0919,-3.7802 1.7165,3.9514 -0.9062,6.6294 -0.8831,10.8306 -0.5353,2.2166 -3.4132,-0.4003 -3.2283,2.4957 0.7554,1.8786 4.1982,-0.1232 3.6747,2.4933 -1.2497,1.7373 0.4935,3.1869 -0.3445,5.312 -1.4382,5.545 -1.4422,15.649 -9.4183,16.583 -1.2463,-1.564 -1.8699,1.056 -3.2839,0.597 -7.5232,-0.68 -14.6498,1.93 -21.8702,1.341 -4.5621,-5.469 -2.8149,-14.123 -4.2254,-21.2852 0.4536,-8.4169 1.0629,-14.9376 1.5194,-23.2545 l -0.6997,0.0206 0.885,-0.5262 c -0.1849,-2.8959 1.0295,-5.8327 1.4444,-8.7462 l -0.5115,-0.3851 c 2.0844,-0.5614 -0.1938,-3.1956 1.8848,-3.957 11.5186,0.4628 24.4511,1.3844 35.3051,3.067 z"></path>
    <path style="fill:#ffffff;stroke:none" id="path14" d="m 58.4781,70.6778 c -0.8879,0.4263 -0.2618,1.3083 -0.4441,1.914 2.046,1.5406 4.5658,-1.2343 7.0116,0.2946 2.1196,0.6382 4.6625,2.0643 4.9386,4.6574 -2.6549,1.5785 -4.9327,-4.4574 -7.2174,-0.4888 0.0381,1.2994 2.5546,1.826 1.6959,3.2516 -1.5993,0.0469 -2.6373,2.1783 -4.4687,1.1315 -1.0435,-1.47 0.9911,-3.7307 -1.1344,-4.5688 -1.8904,0.3556 -0.7059,3.2221 -3.0283,2.4898 -1.1347,-1.1672 1.0526,-1.6315 0.6176,-2.8193 -0.0318,-4.5009 -0.1047,-10.4014 3.497,-13.8084 0.9758,2.5725 -1.3499,5.1418 -1.4678,7.9464 z"></path>
    <path style="fill:#ffffff;stroke:none" id="path15" d="m 86.4753,66.756 c 0.1175,0.5968 -0.5676,1.1171 -0.9645,1.2287 l -1.708,-0.25 c -0.5203,-0.685 0.253,-1.6082 0.4295,-2.4137 1.1907,-0.3349 1.7168,0.5499 2.243,1.435 z"></path>
    <path style="fill:#004cff;stroke:none" id="path16" d="m 116.818,71.1689 c -0.007,3.2016 -2.012,6.4617 -2.118,9.6662 -2.564,4.6772 -5.605,10.1687 -9.697,13.8902 0.029,0.9995 -1.159,1.4344 -1.335,2.2401 -3.311,-0.3033 -5.3065,-3.5461 -7.6787,-5.9778 -0.6496,-1.6816 -1.5961,-3.2545 -2.7395,-4.7217 -0.8085,-0.2765 -1.6876,0.4496 -1.6642,1.2493 0.9403,4.7746 5.1323,7.853 8.2336,11.2636 2.5258,0.8264 0.3938,3.1902 1.1608,5.4682 1.767,2.249 -0.327,5.912 1.939,8.147 -0.156,1.505 1.608,3.654 -0.368,4.513 -4.9769,0.846 -9.0576,1.566 -13.8233,2.806 -2.0464,1.861 -5.58,0.764 -7.4411,2.119 -1.223,-0.765 -3.0753,0.89 -3.3396,-1.303 -0.8495,-1.676 1.1233,-2.634 2.0082,-3.16 1.0025,0.07 1.0673,-1.132 1.4555,-1.544 7.5088,-3.221 4.4405,-12.335 6.3697,-18.194 1.1445,-8.7372 1.798,-17.16 2.1399,-25.9738 -0.2438,-1.4935 1.038,-2.1313 2.3375,-2.1694 8.3292,0.8562 16.3402,1.1217 24.5602,1.6811 z"></path>
    <path style="fill:#ffffff;stroke:none" id="path17" d="m 74.788,77.603 c -0.3852,0.5116 -0.9937,0.2292 -1.4906,0.3439 0.2765,-0.8085 -0.6671,-2.2814 0.6294,-2.4196 1.3965,-0.1409 1.1435,1.4671 0.8612,2.0757 z"></path>
    <path style="fill:#ffffff;stroke:none" id="path18" d="m 57.1355,89.7255 c -0.25,1.7079 -3.1605,1.3932 -3.5076,3.2041 -0.0527,-1.7993 -1.6989,-3.3517 -3.4982,-3.299 l 0.9088,-3.128 c 0.2966,3.2928 3.9716,2.3847 6.097,3.2229 z"></path>
    <path style="fill:#ffffff;stroke:none" id="path19" d="m 74.2191,92.3261 c 0.1761,2.5959 -2.1496,5.1651 -0.4829,7.4173 -0.4881,0.4146 -0.35,1.7106 -1.4642,1.2436 -0.2175,-0.594 -0.632,-1.0822 0.25,-1.7082 -0.082,-2.7988 -1.2254,-4.2659 -0.502,-6.8882 -0.235,-1.1937 0.3413,-2.0109 0.7147,-2.9222 1.4935,-0.244 1.0553,1.8698 1.4844,2.8577 z"></path>
    <path style="fill:#ffffff;stroke:none" id="path20" d="m 58.2227,96.0963 c -0.5558,1.517 -2.9105,-0.3148 -3.7633,1.3109 0.532,1.0849 1.5521,1.7552 1.4932,3.1578 -0.8557,1.525 -3.0401,2.09 -2.273,4.368 1.808,0.247 0.4731,2.487 2.2899,3.034 5.6946,-0.266 10.8455,-2.018 16.7518,-1.891 1.3672,-1.141 2.6988,-0.079 4.0689,-1.12 1.6228,0.753 2.9841,-0.588 4.4776,-0.831 1.2291,-2.437 0.2299,-5.8096 1.459,-8.2467 0.5851,-0.5173 1.614,0.453 1.4434,1.4583 -1.2028,3.3364 -0.1508,8.5084 -4.5167,9.7364 -1.6023,-0.053 -3.3015,-0.003 -4.4717,1.032 0.376,2.59 2.8892,6.418 -0.0597,8.205 -1.4638,-2.158 -1.1636,-5.568 -2.3247,-7.635 -0.0058,-0.2 0.8821,-0.626 0.1707,-1.006 -3.1723,0.994 -7.3617,1.417 -10.9455,2.022 -3.5926,0.305 -8.2877,0.543 -10.0013,-3.309 0.8235,-2.625 2.2792,-7.5696 0.1981,-10.3099 l 0.9439,-1.9285 c 2.1049,0.1384 2.7662,2.2201 5.0594,1.9527 z"></path>
  </g>
</svg>
