<?xml version="1.0" encoding="UTF-8" standalone="no"?>
<svg
   xmlns:dc="http://purl.org/dc/elements/1.1/"
   xmlns:cc="http://creativecommons.org/ns#"
   xmlns:rdf="http://www.w3.org/1999/02/22-rdf-syntax-ns#"
   xmlns:svg="http://www.w3.org/2000/svg"
   xmlns="http://www.w3.org/2000/svg"
   xmlns:sodipodi="http://sodipodi.sourceforge.net/DTD/sodipodi-0.dtd"
   xmlns:inkscape="http://www.inkscape.org/namespaces/inkscape"
   height="100"
   id="svg1"
   inkscape:version="0.48.2 r9819"
   sodipodi:docname="ppe_shadegoggles.svg"
   sodipodi:version="0.32"
   width="100"
   version="1.1">
  <metadata
     id="metadata3767">
    <rdf:RDF>
      <cc:Work
         rdf:about="">
        <dc:title />
        <dc:description>obligation</dc:description>
        <dc:subject>
          <rdf:Bag>
            <rdf:li />
            <rdf:li>symbol</rdf:li>
            <rdf:li>signs_and_symbols</rdf:li>
          </rdf:Bag>
        </dc:subject>
        <dc:publisher>
          <cc:Agent
             rdf:about="http://www.openclipart.org">
            <dc:title>yves GUILLOU</dc:title>
          </cc:Agent>
        </dc:publisher>
        <dc:creator>
          <cc:Agent>
            <dc:title>yves GUILLOU</dc:title>
          </cc:Agent>
        </dc:creator>
        <dc:rights>
          <cc:Agent>
            <dc:title>yves GUILLOU</dc:title>
          </cc:Agent>
        </dc:rights>
        <dc:date />
        <dc:format>image/svg+xml</dc:format>
        <dc:type
           rdf:resource="http://purl.org/dc/dcmitype/StillImage" />
        <cc:license
           rdf:resource="http://web.resource.org/cc/PublicDomain" />
        <dc:language>en</dc:language>
      </cc:Work>
      <cc:License
         rdf:about="http://web.resource.org/cc/PublicDomain">
        <cc:permits
           rdf:resource="http://web.resource.org/cc/Reproduction" />
        <cc:permits
           rdf:resource="http://web.resource.org/cc/Distribution" />
        <cc:permits
           rdf:resource="http://web.resource.org/cc/DerivativeWorks" />
      </cc:License>
    </rdf:RDF>
  </metadata>
  <sodipodi:namedview
     bordercolor="#666666"
     borderopacity="1.0"
     id="base"
     inkscape:current-layer="svg1"
     inkscape:cx="43.189071"
     inkscape:cy="39.672319"
     inkscape:pageopacity="0.0"
     inkscape:pageshadow="2"
     inkscape:window-height="1006"
     inkscape:window-width="1590"
     inkscape:window-x="0"
     inkscape:window-y="0"
     inkscape:zoom="22.231437"
     pagecolor="#ffffff"
     showgrid="false"
     inkscape:window-maximized="0" />
  <defs
     id="defs2">
    <marker
       id="ArrowEnd"
       markerHeight="3"
       markerUnits="strokeWidth"
       markerWidth="4"
       orient="auto"
       refX="0"
       refY="5"
       viewBox="0 0 10 10">
      <path
         d="M 0,0 10,5 0,10 z"
         id="path4"
         inkscape:connector-curvature="0" />
    </marker>
    <marker
       id="ArrowStart"
       markerHeight="3"
       markerUnits="strokeWidth"
       markerWidth="4"
       orient="auto"
       refX="10"
       refY="5"
       viewBox="0 0 10 10">
      <path
         d="M 10,0 0,5 10,10 z"
         id="path6"
         inkscape:connector-curvature="0" />
    </marker>
  </defs>
  <g
     id="g7"
     transform="matrix(0.7055502,0,0,0.70554873,-8.1277111,-8.1274859)">
    <path
       d="M 84.4627,153.222 C 123.584,152.076 154.369,119.431 153.222,80.3102 152.076,41.1892 119.431,10.4038 80.3104,11.5504 41.1894,12.6971 10.404,45.3414 11.5507,84.4625 c 1.1466,39.1205 33.791,69.9065 72.912,68.7595 z"
       id="path8"
       style="fill:#000000;stroke:none"
       inkscape:connector-curvature="0" />
    <path
       d="M 84.2892,148.923 C 121.063,147.846 150.001,117.16 148.924,80.3861 147.846,43.6122 117.16,14.674 80.386,15.7517 43.6122,16.8295 14.6738,47.5154 15.7517,84.2892 16.8296,121.063 47.5154,150.001 84.2892,148.923 z"
       id="path9"
       style="fill:#004cff;stroke:#ffffff;stroke-width:3"
       inkscape:connector-curvature="0" />
  </g>
  <path
     style="fill:#ffffff"
     d="m 30,30 c -11.045696,0 -20,8.954305 -20,20 0,11.045695 8.954304,20 20,20 l 6.666667,0 c 3.681898,0 8.666333,-2.985101 8.666333,-6.667 0,-3.681898 0.985101,-4.666 4.667,-4.666 3.681899,0 4.667,0.984102 4.667,4.666 0,3.681899 4.984435,6.667 8.666333,6.667 L 70,70 C 81.045695,70 90,61.045695 90,50 90,38.954305 81.045695,30 70,30 z m 0,3.333333 c 9.204745,0 16.666667,7.461922 16.666667,16.666667 0,9.204745 -7.461922,16.666667 -16.666667,16.666667 -9.204745,0 -16.666667,-7.461922 -16.666667,-16.666667 0,-9.204745 7.461922,-16.666667 16.666667,-16.666667 z m 40,0 c 9.204745,0 16.666667,7.461922 16.666667,16.666667 0,9.204745 -7.461922,16.666667 -16.666667,16.666667 -9.204745,0 -16.666667,-7.461922 -16.666667,-16.666667 0,-9.204745 7.461922,-16.666667 16.666667,-16.666667 z"
     id="path3982"
     inkscape:connector-curvature="0"
     sodipodi:nodetypes="ssssssssssssssssssssss" />
  <path
     sodipodi:type="arc"
     style="fill:#ffffff"
     id="path3937"
     sodipodi:cx="33.191757"
     sodipodi:cy="44.976757"
     sodipodi:rx="9.2857895"
     sodipodi:ry="10.174854"
     d="m 42.477547,44.976757 a 9.2857895,10.174854 0 1 1 -18.571579,0 9.2857895,10.174854 0 1 1 18.571579,0 z"
     transform="matrix(1.4358859,0,0,1.3104201,-17.659576,-8.9384452)" />
  <path
     sodipodi:type="arc"
     style="fill:#ffffff"
     id="path3961"
     sodipodi:cx="66.087158"
     sodipodi:cy="53.669838"
     sodipodi:rx="10.767565"
     sodipodi:ry="11.162704"
     d="m 76.854723,53.669838 a 10.767565,11.162704 0 1 1 -21.53513,0 10.767565,11.162704 0 1 1 21.53513,0 z"
     transform="matrix(1.2382868,0,0,1.1944537,-11.834857,-14.106136)" />
</svg>
