<?xml version="1.0" encoding="UTF-8" standalone="no"?>
<svg
   xmlns:dc="http://purl.org/dc/elements/1.1/"
   xmlns:cc="http://creativecommons.org/ns#"
   xmlns:rdf="http://www.w3.org/1999/02/22-rdf-syntax-ns#"
   xmlns:svg="http://www.w3.org/2000/svg"
   xmlns="http://www.w3.org/2000/svg"
   xmlns:sodipodi="http://sodipodi.sourceforge.net/DTD/sodipodi-0.dtd"
   xmlns:inkscape="http://www.inkscape.org/namespaces/inkscape"
   height="100"
   id="svg1"
   inkscape:version="0.48.2 r9819"
   sodipodi:docname="ppe_clothing.svg"
   sodipodi:version="0.32"
   width="99.999794"
   version="1.1">
  <metadata
     id="metadata3">
    <rdf:RDF>
      <cc:Work
         rdf:about="">
        <dc:title />
        <dc:description>obligation</dc:description>
        <dc:subject>
          <rdf:Bag>
            <rdf:li />
            <rdf:li>symbol</rdf:li>
            <rdf:li>signs_and_symbols</rdf:li>
          </rdf:Bag>
        </dc:subject>
        <dc:publisher>
          <cc:Agent
             rdf:about="http://www.openclipart.org">
            <dc:title>yves GUILLOU</dc:title>
          </cc:Agent>
        </dc:publisher>
        <dc:creator>
          <cc:Agent>
            <dc:title>yves GUILLOU</dc:title>
          </cc:Agent>
        </dc:creator>
        <dc:rights>
          <cc:Agent>
            <dc:title>yves GUILLOU</dc:title>
          </cc:Agent>
        </dc:rights>
        <dc:date />
        <dc:format>image/svg+xml</dc:format>
        <dc:type
           rdf:resource="http://purl.org/dc/dcmitype/StillImage" />
        <cc:license
           rdf:resource="http://web.resource.org/cc/PublicDomain" />
        <dc:language>en</dc:language>
      </cc:Work>
      <cc:License
         rdf:about="http://web.resource.org/cc/PublicDomain">
        <cc:permits
           rdf:resource="http://web.resource.org/cc/Reproduction" />
        <cc:permits
           rdf:resource="http://web.resource.org/cc/Distribution" />
        <cc:permits
           rdf:resource="http://web.resource.org/cc/DerivativeWorks" />
      </cc:License>
    </rdf:RDF>
  </metadata>
  <sodipodi:namedview
     bordercolor="#666666"
     borderopacity="1.0"
     id="base"
     inkscape:current-layer="svg1"
     inkscape:cx="49.999898"
     inkscape:cy="35.610785"
     inkscape:pageopacity="0.0"
     inkscape:pageshadow="2"
     inkscape:window-height="1006"
     inkscape:window-width="1590"
     inkscape:window-x="0"
     inkscape:window-y="0"
     inkscape:zoom="5.5597203"
     pagecolor="#ffffff"
     showgrid="false"
     fit-margin-top="0"
     fit-margin-left="0"
     fit-margin-right="0"
     fit-margin-bottom="0"
     inkscape:window-maximized="0" />
  <defs
     id="defs2">
    <marker
       id="ArrowEnd"
       markerHeight="3"
       markerUnits="strokeWidth"
       markerWidth="4"
       orient="auto"
       refX="0"
       refY="5"
       viewBox="0 0 10 10">
      <path
         d="M 0,0 10,5 0,10 z"
         id="path4"
         inkscape:connector-curvature="0" />
    </marker>
    <marker
       id="ArrowStart"
       markerHeight="3"
       markerUnits="strokeWidth"
       markerWidth="4"
       orient="auto"
       refX="10"
       refY="5"
       viewBox="0 0 10 10">
      <path
         d="M 10,0 0,5 10,10 z"
         id="path6"
         inkscape:connector-curvature="0" />
    </marker>
  </defs>
  <g
     id="g7"
     transform="matrix(0.70554826,0,0,0.70554826,-8.1276182,-8.127414)">
    <path
       d="M 84.4626,153.222 C 123.584,152.075 154.369,119.431 153.222,80.3101 152.076,41.1891 119.431,10.4038 80.3103,11.5503 41.1893,12.697 10.4039,45.3413 11.5506,84.4624 c 1.1466,39.1206 33.791,69.9066 72.912,68.7596 z"
       id="path8"
       style="fill:#000000;stroke:none"
       inkscape:connector-curvature="0" />
    <path
       d="M 84.2891,148.923 C 121.063,147.845 150.001,117.16 148.923,80.386 147.846,43.6121 117.16,14.6739 80.3859,15.7517 43.6121,16.8294 14.6738,47.5153 15.7517,84.2891 16.8295,121.063 47.5153,150.001 84.2891,148.923 z"
       id="path9"
       style="fill:#004cff;stroke:#ffffff;stroke-width:3"
       inkscape:connector-curvature="0" />
  </g>
  <g
     id="g10"
     transform="matrix(0.70554826,0,0,0.70554826,-8.1276182,-8.127414)">
    <path
       d="m 87.4108,27.8318 c 1.3229,0.7615 3.3751,-0.8993 3.6395,1.2939 -1.0643,1.2317 -2.3195,-0.6323 -3.3839,0.5995 -0.7703,1.0229 -0.7263,2.5222 0.3055,3.5925 0.435,1.1878 2.3488,1.6318 2.09,3.0401 -0.5792,0.7173 -1.4906,0.3437 -1.964,1.2581 0.0411,1.3994 1.3962,3.2605 -0.7941,3.6248 -3.8013,0.0114 -0.5912,3.719 -2.5435,5.3768 0.0176,0.5999 0.3321,1.0909 0.8437,1.476 0.9995,-0.0293 1.2642,-1.2375 1.5407,-2.0461 8.3289,-2.5451 9.9804,6.0101 15.4833,9.4502 2.417,0.5294 1.596,3.2547 1.74,4.7511 -0.923,6.0298 -2.341,12.274 -1.856,18.5625 -0.462,1.3141 -1.55,1.7462 -2.7376,2.1812 -1.9786,0.7583 -4.742,-1.3617 -5.5683,1.1636 2.8563,15.5231 1.344,28.773 3.0066,44.531 2.2694,2.335 8.2523,1.659 7.1673,5.593 -5.4657,1.26 -9.3285,-0.827 -15.0938,0.442 -1.2191,-10.869 -2.5616,-22.535 -5.3625,-32.7569 -0.7554,-1.8786 0.1738,-4.3068 -1.5694,-5.7565 -2.7519,1.6815 -1.2441,5.3388 -2.8788,7.5874 -0.8267,5.927 -1.5944,10.452 -2.4269,16.178 0.2407,4.795 -0.7358,9.026 -1.3006,13.644 -6.65,-1.605 -14.3411,2.222 -20.153,-1.51 -0.1205,-0.696 0.6587,-1.419 1.3554,-1.54 4.0071,0.183 7.8937,-0.331 11.219,-2.93 -0.9078,-7.077 0.6686,-14.726 0.5605,-21.826 -0.5288,-4.3861 0.9034,-10.1307 0.4834,-14.2201 2.1316,-2.3635 0.5472,-4.694513 2.1733,-7.243113 -0.5145,-0.4852 0.0589,-1.926387 -0.4556,-2.411387 -2.8017,-0.0179 -6.1885,0.4816 -8.7314,-0.9445 0.5235,-2.6165 -2.4544,-5.2303 -0.2257,-7.6967 -0.4494,-5.0891 -1.4956,-10.0605 -2.3418,-15.0378 4.022,-2.7191 7.5061,-6.7231 10.4993,-10.4124 2.0756,-0.8611 4.8832,-0.6434 7.1911,-0.4109 1.2642,-1.2377 -0.3703,-2.3902 -0.6053,-3.5838 -2.443,-1.429 -2.0517,-5.142 -2.3249,-7.6351 0.9322,-2.3283 1.0354,-5.6328 3.602,-6.8086 3.0163,0.5119 6.4884,-0.4904 9.4165,0.4242 z"
       id="path11"
       sodipodi:nodetypes="ccccccccccccccccccccccccccccccccccccccc"
       style="fill:#ffffff;stroke:none"
       inkscape:connector-curvature="0" />
    <path
       d="m 84.797,30.8097 c -1.3349,2.2401 2.0282,4.3425 0.4962,6.6884 0.4116,0.388 0.1293,0.9966 0.241,1.3935 -1.3818,0.6407 -2.6135,-0.4236 -3.5633,1.305 -0.1178,2.8046 2.6543,5.2244 0.7343,7.982 -4.207,-0.1769 -2.1692,-5.739 -3.8447,-8.291 -1.3786,-2.6608 -2.1574,-5.3391 -1.2458,-8.3671 1.7494,-1.752 5.0656,-1.2491 7.1823,-0.7108 z"
       id="path12"
       style="fill:#004cff;stroke:none"
       inkscape:connector-curvature="0" />
    <path
       d="m 85.3656,50.2014 c -1.0467,1.8314 -3.2546,1.596 -4.7539,1.6401 -0.9143,-0.4734 -1.9285,-0.944 -1.9637,-2.1434 1.4759,-0.8436 3.5425,1.3967 5.2977,-0.1553 0.5704,-1.0172 1.9845,-0.5584 1.4199,0.6586 z"
       id="path13"
       style="fill:#004cff;stroke:none"
       inkscape:connector-curvature="0" />
    <path
       d="m 82.6428,56.2839 c -0.348,12.0154 0.1037,24.0072 0.1409,35.5112 -1.6817,0.6496 -1.5375,-1.2556 -1.5697,-2.355 0.1363,-12.4095 -0.6035,-23.9927 0.1589,-35.52 1.2024,0.0648 0.8466,1.5759 1.2699,2.3638 z"
       id="path14"
       style="fill:#004cff;stroke:none"
       inkscape:connector-curvature="0" />
    <path
       d="m 70.6737,64.3381 c 1.2109,3.7662 0.2315,7.8967 0.3458,11.795 -0.1911,0.3058 -0.5909,0.3175 -0.9878,0.4292 -1.0641,-2.1697 0.6648,-4.6216 -1.7869,-6.3505 1.0617,-4.733 -2.9744,-9.3168 1.5474,-12.0504 1.5492,1.6552 0.1143,3.8983 0.8815,6.1767 z"
       id="path15"
       style="fill:#004cff;stroke:none"
       inkscape:connector-curvature="0" />
    <path
       d="m 91.1535,59.936 c -0.4822,0.6143 -0.2383,2.1078 -1.5436,1.946 -1.5199,-0.6557 -4.0836,0.6199 -4.642,-1.3644 -0.1264,-0.8968 0.0384,-2.1022 1.1379,-2.1343 1.8256,0.8468 4.0689,-1.1198 5.0477,1.5527 z"
       id="path16"
       style="fill:#004cff;stroke:none"
       inkscape:connector-curvature="0" />
    <path
       d="m 97.2125,61.8592 c -0.1504,5.1066 -0.8006,10.2278 -1.9476,15.4637 -0.394,0.2117 -0.5821,0.6174 -1.1848,0.5349 -0.5291,-0.9848 -1.067,-2.2695 -0.4995,-3.3868 0.2591,-4.8096 1.7972,-10.3571 0.7569,-15.1286 1.5406,-2.046 2.734,1.1203 2.875,2.5168 z"
       id="path17"
       style="fill:#004cff;stroke:none"
       inkscape:connector-curvature="0" />
    <path
       d="m 68.1472,77.1177 c -0.2735,0.9084 -1.3877,0.4409 -1.8904,0.3557 -1.0318,-1.0703 -1.8667,-2.2464 -1.5137,-3.8575 0.3822,-0.6113 1.076,-0.8318 1.8786,-0.7552 0.9348,1.173 -0.0032,3.3015 1.5255,4.257 z"
       id="path18"
       style="fill:#004cff;stroke:none"
       inkscape:connector-curvature="0" />
    <path
       d="m 100.342,76.4737 c -0.9759,0.829 -0.8291,2.4254 -2.3226,2.6693 -1.3935,0.241 -1.8344,-1.1467 -1.2639,-2.1638 1.373,-0.9408 0.1061,-3.2045 1.7936,-3.6543 1.8959,-0.1555 2.3489,1.6319 1.7929,3.1488 z"
       id="path19"
       style="fill:#004cff;stroke:none"
       inkscape:connector-curvature="0" />
  </g>
</svg>
