<svg version="1.1" width="100" id="svg1" height="100" xmlns="http://www.w3.org/2000/svg">
  <metadata id="metadata3">
    
      
        
        obligation
        
          
            
            symbol
            signs_and_symbols
          
        
        
          
            yves GUILLOU
          
        
        
          
            yves GUILLOU
          
        
        
          
            yves GUILLOU
          
        
        
        image/svg+xml
        
        
        en
      
      
        
        
        
      
    
  </metadata>
  
  <defs id="defs2">
    <marker viewBox="0 0 10 10" refY="5" refX="0" orient="auto" markerWidth="4" markerUnits="strokeWidth" markerHeight="3" id="ArrowEnd">
      <path id="path4" d="M 0,0 10,5 0,10 z"></path>
    </marker>
    <marker viewBox="0 0 10 10" refY="5" refX="10" orient="auto" markerWidth="4" markerUnits="strokeWidth" markerHeight="3" id="ArrowStart">
      <path id="path6" d="M 10,0 0,5 10,10 z"></path>
    </marker>
  </defs>
  <g transform="matrix(0.70554925,0,0,0.70554925,-8.1275665,-8.1275665)" id="g7">
    <g id="g8">
      <path style="fill:#000000;stroke:none" id="path9" d="M 84.4626,153.222 C 123.584,152.075 154.369,119.431 153.222,80.3103 152.076,41.1892 119.431,10.404 80.3103,11.5505 41.1892,12.697 10.404,45.3415 11.5505,84.4626 12.697,123.583 45.3415,154.369 84.4626,153.222 z"></path>
      <path style="fill:#004cff;stroke:#ffffff;stroke-width:3" id="path10" d="M 84.2893,148.923 C 121.063,147.846 150.001,117.16 148.923,80.3859 147.846,43.612 117.16,14.674 80.3859,15.7517 43.612,16.8298 14.674,47.5153 15.7517,84.2893 16.8293,121.063 47.5153,150.001 84.2893,148.923 z"></path>
    </g>
    <g id="g11">
      <path style="fill:#ffffff;stroke:#ffffff;stroke-width:1" id="path12" d="m 93.9011,38.0573 c 0.4638,1.5552 0.3598,2.9698 0.8999,4.3199 1.2602,-1.44 1.8901,-3.6001 3.8701,-4.3199 2.1599,-0.54 3.7799,0.7198 4.7699,2.1597 0.09,1.3501 0.74,2.5942 0.36,4.3203 1.483,-2.2778 4.432,-2.4941 6.412,-1.0542 1.699,3.8774 1.051,7.686 -0.161,11.4619 -1.291,4.0235 -2.231,7.94 -3.641,12.002 -2.563,6.2651 -3.581,12.6587 -3.737,19.1562 -0.188,7.877 0.893,15.9058 2.027,24.0438 -4.23,-0.181 -9.1798,-1.08 -13.4098,-2.52 l 0.2061,-0.623 10.6987,1.875 1.245,-0.442 c -1.62,-10.7102 -2.52,-21.0603 -0.9,-31.95 2.61,-10.3501 8.589,-23.6391 7.486,-30.9184 -0.9,-1.44 -2.536,-2.4712 -4.066,-1.4815 -1.89,1.9224 -2.564,4.1572 -3.517,6.3926 -0.758,1.7788 -1.186,2.6118 -1.241,3.3608 -0.21,-1.3139 -0.538,-0.3652 -0.22,-1.875 0.77,-3.6601 3.024,-9.7187 0.22,-12.9048 -2.9694,-0.8999 -4.5119,1.9664 -5.592,3.7666 -0.4511,1.1651 -0.8862,2.3296 -1.3383,3.4815 -0.6309,1.6069 -1.295,3.1885 -2.0816,4.7085 0.3159,-1.3486 -0.3691,0.4492 -0.1426,-1.0371 1.2134,-4.6323 1.667,-9.0552 0.9927,-11.6914 -0.6299,-1.6201 -2.206,-1.2134 -3.4189,-0.9927 -3.4204,4.5898 -4.271,9.5811 -5.6211,14.981 -0.1724,-0.377 -0.6367,0.1674 -0.666,-0.3116 -0.2139,-3.5273 3.1015,-10.3759 -1.4942,-12.1982 -2.6997,0.0898 -3.06,2.3398 -4.3198,4.3198 -0.4248,1.6607 -1.7666,9.646 -2.1274,11.4082 -0.48,2.3443 0.331,0.4409 -0.9327,0.292 1.0801,-5.3101 0.8067,-13.3965 6.1167,-16.7266 4.2705,0 3.1358,1.5352 5.1333,2.8667 0.6866,-0.7251 1.0015,-1.644 1.3072,-2.5444 0.416,-1.2241 0.8164,-2.4136 2.1128,-3.0356 1.9799,-0.2701 3.8701,0.1797 4.77,1.7099 z"></path>
      <path style="fill:#ffffff;stroke:none" id="path13" d="m 73.5612,60.1071 c 0.5401,6.48 0.5401,13.6797 1.7998,19.44 L 76.6213,78.197 76.1711,60.1071 c 0.4502,-1.8901 2.25,-1.8901 3.8701,-1.7998 2.0698,0.7198 1.9702,2.7027 2.6099,4.7696 0.54,19.7099 10.7099,57.7801 12.1499,62.6391 -12.96,-0.81 -26.46,-0.449 -38.8794,1.351 1.6196,-20.43 -4.6802,-40.4101 -3.0601,-61.3798 0.8999,-1.0801 2.0699,-1.5303 3.4199,-1.2602 3.7798,4.0502 1.6197,10.5297 3.5098,15.4799 l 0.4502,0 c 1.71,-7.2002 -1.5303,-14.04 0,-21.1499 1.0801,-0.9897 2.52,-1.7998 3.8701,-0.81 l 1.2598,1.7099 c 0.4502,6.48 0.8101,13.1402 1.71,19.44 l 0.8999,0 c 0.3598,-6.2998 -0.5401,-12.96 -0.8999,-19.44 -0.2701,-4.8598 6.8398,-3.5097 6.4799,0.4502 z"></path>
      <path style="fill:#ffffff;stroke:#ffffff;stroke-width:1" id="path14" d="m 100.831,63.0769 c -0.481,3.9467 -1.283,7.7446 -2.4089,11.3979 -2.0323,6.5938 -5.1211,12.7168 -9.291,18.3921 -0.8101,-3.4199 3.7216,-6.4385 4.3515,-10.1284 1.1651,-2.4322 2.0977,-4.6953 3.0884,-7.1695 1.6123,-4.0263 2.9233,-7.6694 2.8677,-12.4633 -0.9898,-2.1602 -2.9024,-1.9536 -4.5225,-1.3238 -1.397,1.9146 -5.8828,7.1338 -7.6103,9.0445 -1.2769,1.4126 -0.05703,-0.237413 -1.319729,0.604387 0.3374,-0.8774 1.035529,-2.295787 1.676629,-3.198687 1.9238,-2.7085 4.9106,-5.4926 7.1382,-8.125 1.9902,-1.6338 5.49,0.2701 6.03,2.9698 z"></path>
    </g>
    <path style="fill:#ffffff;stroke:none" id="path15" d="m 92.7512,107.321 0.9389,0.939"></path>
  </g>
</svg>
