<svg xml:space="preserve" style="enable-background:new 0 0 117.829 103.684;" viewBox="0 0 117.829 103.684" height="103.684px" width="117.829px" y="0px" x="0px" id="Layer_1" version="1.1" xmlns:xlink="http://www.w3.org/1999/xlink" xmlns="http://www.w3.org/2000/svg">

	
<g transform="translate(-52.234095,-9.440477)" id="g4607">
	<g transform="translate(128.0849,100.1328)" id="use4584">
		<g transform="translate(-495.6494,-311.9277)" id="g3437_9_">
			<path d="M477.851,221.242c-1.881,0.291-3.534,1.402-4.479,3.047     l-52.635,91.188c-1.101,1.916-1.118,4.303,0,6.231c1.118,1.929,3.198,3.142,5.448,3.142h105.268c2.25,0,4.332-1.211,5.449-3.142     c1.117-1.93,1.102-4.315,0-6.231l-52.635-91.188C482.975,222.036,480.411,220.84,477.851,221.242z" style="fill:#FDEE1C;" xlink:href="#path3422" id="path3424_9_"></path>
			<path d="M478.335,223.817c-1.018,0.157-1.884,0.771-2.375,1.625l-53,91.812     c-0.58,1.01-0.582,2.308,0,3.312c0.592,1.021,1.685,1.688,2.875,1.688h106c1.188,0.002,2.283-0.666,2.875-1.688     c0.582-1.006,0.58-2.304,0-3.312l-53-91.812C481.03,224.256,479.714,223.601,478.335,223.817z M478.835,234.379l45,79.25h-90.062     L478.835,234.379z" style="fill:#010101;" id="path3432_9_"></path>
		</g>
	</g>
	<g transform="matrix(0.442824,0,0,0.442824,633.191,218.9338)" id="g5806">
		<path d="M-1164.577-428.771l-48.001,117.415l56.125-102.174L-1164.577-428.771z     M-1204.077-406.484l-13.188,25.189l-3.5,63.314L-1204.077-406.484z M-1146.325-391.422l-43.376,57.501l47.5-50.438    L-1146.325-391.422z M-1135.325-372.796l-71.065,69.937l78.003-58.249L-1135.325-372.796z M-1235.887-349.42l-5.063,7.375    l12.063,21.376C-1228.889-322.224-1235.887-349.42-1235.887-349.42z M-1120.7-348.172l-63.94,37.565l68.438-29.878    L-1120.7-348.172z M-1244.077-337.793l-5.438,10.122l12.438,12.001L-1244.077-337.793z M-1104.698-321.108l-90.066,20.999    l95.253-12.246L-1104.698-321.108z M-1092.26-298.918l-75.691,3.061l80,3.123L-1092.26-298.918z M-1197.452-291.173    l119.438,15.128l-5.372-9.064L-1197.452-291.173z M-1200.952-277.236l67.752,17.126h21.186L-1200.952-277.236z M-1212.201-275.67    c3.202,1.067,17.208,9.381,27.5,15.561h18.122L-1212.201-275.67z" style="fill:#010101;" id="path5700"></path>
		<path d="M-1196.202-386.577c0-0.093,0-0.183,0-0.276    c0-0.988,1.098-1.647,1.647-2.47c0.898-1.347,1.317-2.964,2.47-4.12c1.526-1.524,3.075-1.495,4.669-1.098    c1.246,0.313,1.098,2.686,1.098,3.844c0,2.419-2.794,3.401-4.121,4.393c-1.586,1.191-1.452,6.104-2.196,7.963    c-0.765,1.912-2.589,2.496-3.844,0.823c-1.439-1.919-2.095-3.89-3.296-5.491c-1.542-2.053,1.059-2.45,2.197-3.019    C-1197.135-386.248-1196.66-386.394-1196.202-386.577z" style="fill:#010101;stroke:#010101;stroke-width:2;" id="path5756"></path>
		<path d="M-1163.253-384.38    c1.729-0.865-3.837,0.549-5.769,0.549c-2.152,0-0.335,4.263,0,4.942c1.513,3.021,3.753-0.375,4.671,3.295    c0.737,2.962,0.45,2.957,3.295,0.823c1.01-0.754,1.429-3.709,2.197-4.664c1.552-1.945,1.817-2.9,2.743-5.22    c0.776-1.932,0.609-2.413-0.547-3.566c-1.447-1.442-3.996,1.301-4.666,2.194C-1162.062-385.057-1161.921-385.179-1163.253-384.38z" style="fill:#010101;stroke:#010101;stroke-width:2;" id="path5758"></path>
		<path d="M-1152.271-322.056    c-0.185,0.247,2.827-1.738,4.667-2.196c2.064-0.516,3.52,0.238,4.94,1.376c1.597,1.27,1.014,4.186,0.829,5.487    c-0.216,1.486-4.66,0.829-5.769,0.551c-0.366-0.093-0.732-0.181-1.098-0.278c-2.223-0.556-4.803,0.344-6.589-0.547    c-1.919-0.964,0.322-3.339,0.825-3.846C-1154.115-321.862-1152.461-322.021-1152.271-322.056z" style="fill:#010101;stroke:#010101;stroke-width:2;" id="path5760"></path>
		<path d="M-1217.616-351.982    c0.042-0.044-4.028-1.42-7.963,0.549c-2.148,1.074-3.432,3.019-2.198,5.489c1.411,2.823,0.139,3.431-1.097,5.496    c-1.065,1.773,2.19,3.564,3.569,3.564c1.576,0,3.414,1.297,4.667,1.923c2.501,1.253,1.923-3.537,1.923-4.666    c0-1.826-0.139-3.835,0.273-5.489c0.302-1.204,0.052-2.944,0.277-3.844C-1217.836-350.289-1217.616-350.364-1217.616-351.982z" style="fill:#010101;stroke:#010101;stroke-width:2;" id="path5762"></path>
		<path d="M-1211.028-294.049    c0.007-0.035-3.992-0.551-5.218-0.551c-1.444,0-1.372,3.672-1.372,4.673c0,1.193-1.996,1.385-3.021,1.643    c-1.581,0.395,3.237,1.921,3.844,1.921c2.979,0,4.768-0.097,6.589-1.921c1.223-1.222,1.098-2.287,1.098-4.12    C-1209.107-294.058-1209.27-294.049-1211.028-294.049z" style="fill:#010101;stroke:#010101;stroke-width:2;" id="path5764"></path>
		<path d="M-1149.254-279.225    c0-3.021-10.471-2.194-12.627-2.194c-3.374,0-2.527,2.113-0.551,3.295c1.614,0.968,5.628,0.247,7.141,0.547    c2.421,0.485,4.415,1.656,6.867,2.474c1.985,0.662,3.723-0.344,4.115-1.923c0.181-0.71-1.927-2.481-2.47-3.021    c-1.627-1.623-2.033-0.71-2.474-0.273" style="fill:#010101;stroke:#010101;stroke-width:2;" id="path5766"></path>
		<path d="M-1184.946-348.141    c-2.137-2.135-4.34,1.852-5.216,3.021c-1.325,1.769,3.677,1.733,4.393,1.372C-1183.945-344.656-1184.339-346.623-1184.946-348.141    z" style="fill:#010101;stroke:#010101;stroke-width:2;" id="path5768"></path>
		<path d="M-1238.76-304.484    c-24.885,18.476-2.43,44.882,21.965,29.93c1.658-1.019-0.858-3.431-1.372-4.12c-1.149-1.531-1.828-2.038-3.57-2.47    c-2.496-0.626-3.257-0.957-3.844-3.299c-0.459-1.835,0.302-3.07,0.825-4.12c0.928-1.859-0.553-1.579-1.923-1.921    c-1.674-0.419-2.995,0.472-4.393,0.825c-2.615,0.655-2.263-1.791-1.921-2.47c0.944-1.888,2.137-1.387,1.647-3.846    c-0.203-1.006-3.574-0.891-4.393-1.096c-1.658-0.417-1.905-3.5-2.198-4.673C-1238.31-303.236-1237.655-302.645-1238.76-304.484z" style="fill:#010101;stroke:#010101;stroke-width:2;" id="path5770"></path>
	</g>
</g>
<metadata>image/svg+xmlOpen Clip Art LibrarySigns Hazard Warning2006-09-11T08:59:16http://openclipart.org/detail/14422/signs-hazard-warning-by-h0us3s-14422h0us3sclip artcliparthazardhazardimagemediapngpublic domainsignsignsvgwarningwarning</metadata></svg>
