<svg xml:space="preserve" style="enable-background:new 0 0 117.828 103.684;" viewBox="0 0 117.828 103.684" height="103.684px" width="117.828px" y="0px" x="0px" id="Layer_1" version="1.1" xmlns:xlink="http://www.w3.org/1999/xlink" xmlns="http://www.w3.org/2000/svg">

	
<g transform="translate(-113.62405,-109.68)" id="g7767">
	<g transform="translate(56.74815,100.1328)" id="use4578">
		<g transform="translate(-495.6494,-311.9277)" id="g3437_8_">
			<path d="M610.342,321.445c-1.88,0.291-3.533,1.402-4.479,3.047     l-52.634,91.188c-1.101,1.916-1.118,4.303,0,6.231c1.118,1.93,3.198,3.142,5.448,3.142h105.268c2.25,0,4.33-1.211,5.449-3.142     c1.117-1.93,1.1-4.315,0-6.231l-52.636-91.188C615.465,322.239,612.902,321.043,610.342,321.445z" style="fill:#FDEE1C;" xlink:href="#path3422" id="path3424_8_"></path>
			<path d="M610.826,324.019c-1.018,0.157-1.885,0.771-2.375,1.625l-53,91.812     c-0.58,1.011-0.582,2.308,0,3.312c0.592,1.021,1.685,1.689,2.875,1.688h106c1.189,0.003,2.283-0.665,2.875-1.688     c0.582-1.006,0.58-2.303,0-3.312l-53-91.812C613.519,324.459,612.205,323.803,610.826,324.019z M611.326,334.583l45,79.25     h-90.062L611.326,334.583z" style="fill:#010101;" id="path3432_8_"></path>
		</g>
	</g>
	<g transform="matrix(0.414275,0,0,0.414275,-211.9442,217.8529)" id="g2982">
		<path d="M901.402-47.336h54.089" style="fill:none;stroke:#010101;stroke-width:4;" id="path2961"></path>
		<path d="M939.291-49.286    c29.395,4.191,36.33-14.608,35.142-41.731c-3.479,4.135-6.959,12.213-10.433,6.862c7.647-12.461,12.588-25.789,0-44.753    c-1.146,10.74-2.918,18.467-7.689,11.803c-0.038-12.251-0.212-24.483-10.985-34.591c0,0-7.937,15.683-6.313,13.453    c3.248-4.441-17.366-40.748-19.491-39.534c0.054,10.931,5.834,25.197-1.92,31.571l-7.415-9.608    c-1.076,11.242-2.513,22.894-3.569,34.871l-9.884-12.081c2.387,13.121,6.439,28.422-0.276,29.65    c-7.574,6.987-7.431-3.663-10.433-7.138c1.231,66.539,15.89,55.189,27.455,61.78c-6.169-9.797-13.922-19.584-10.98-29.381    l4.667,0.825c-2.916-4.394-3.922-8.783-0.276-13.177c7.374,4.436,9.059,15.511,12.353,24.709    c0.886-11.697,1.55-23.04,7.415-42.558l4.117,23.337c3.178,3.178,5.266-26.373,5.214-26.906c-0.283-3.05,9.759,22.87,4.667,23.889    c0,0,9.886-7.963,9.886-4.394s-1.919,12.352-1.919,12.352l8.232-0.547C955.778-66.968,949.692-56.69,939.291-49.286z" style="fill:#010101;stroke:#010101;stroke-width:2;" id="path2963"></path>
	</g>
</g>
<metadata>image/svg+xmlOpen Clip Art LibrarySigns Hazard Warning2006-09-11T08:59:16http://openclipart.org/detail/14421/signs-hazard-warning-by-h0us3s-14421h0us3sclip artcliparthazardhazardimagemediapngpublic domainsignsignsvgwarningwarning</metadata></svg>
