<svg xml:space="preserve" viewBox="0 0 94.263 82.946" height="82.946px" width="94.263px" y="0px" x="0px" id="Layer_1" version="1.2" xmlns="http://www.w3.org/2000/svg"><defs id="defs19"></defs>
<path id="path3" d="M46.356,0.061c-1.504,0.232-2.827,1.121-3.583,2.438L0.666,75.448c-0.88,1.533-0.895,3.443,0,4.986  c0.895,1.545,2.559,2.514,4.358,2.512h84.215c1.801,0.002,3.465-0.967,4.359-2.512c0.895-1.543,0.879-3.453,0-4.986L51.491,2.499  C50.456,0.696,48.405-0.259,46.356,0.061L46.356,0.061z" fill="#FDEE1C"></path>
<path fill="#010101" id="path5" d="M46.744,2.12c-0.814,0.127-1.508,0.617-1.9,1.301L2.443,76.87c-0.464,0.809-0.466,1.848,0,2.65  c0.474,0.816,1.348,1.352,2.3,1.35h84.801c0.951,0.002,1.826-0.533,2.299-1.35c0.467-0.803,0.465-1.842,0-2.65L49.444,3.42  C48.899,2.473,47.846,1.948,46.744,2.12L46.744,2.12z M47.143,10.571l36,63.4h-72.05L47.143,10.571L47.143,10.571z"></path>




<metadata id="metadata15">image/svg+xmlOpen Clip Art Library2006-09-11T08:59:16http://openclipart.org/detail/14454/signs-hazard-warning-by-h0us3s-14454h0us3sclip artcliparthazardhazardimagemediapngpublic domainsignsignsvgwarningwarning</metadata><text id="text3000" y="62.945999" x="38.964844" style="font-size:40px;font-style:normal;font-weight:normal;line-height:125%;letter-spacing:0px;word-spacing:0px;fill:#000000;fill-opacity:1;stroke:none;font-family:Sans" xml:space="preserve"><tspan y="62.945999" x="38.964844" id="tspan3002">!</tspan></text>
</svg>