<?xml version="1.0" encoding="UTF-8"?>
<!-- Generator: Adobe Illustrator 13.0.2, SVG Export Plug-In . SVG Version: 6.00 Build 14948)  -->
<!DOCTYPE svg PUBLIC "-//W3C//DTD SVG 1.1//EN" "http://www.w3.org/Graphics/SVG/1.1/DTD/svg11.dtd">
<svg xmlns:svg="http://www.w3.org/2000/svg" xmlns:dc="http://purl.org/dc/elements/1.1/" xmlns:cc="http://creativecommons.org/ns#" xmlns:sodipodi="http://sodipodi.sourceforge.net/DTD/sodipodi-0.dtd" xmlns:inkscape="http://www.inkscape.org/namespaces/inkscape" xmlns:rdf="http://www.w3.org/1999/02/22-rdf-syntax-ns#" xmlns="http://www.w3.org/2000/svg" xmlns:xlink="http://www.w3.org/1999/xlink" version="1.1" id="Layer_1" inkscape:version="0.45+devel" sodipodi:version="0.32" sodipodi:docname="high voltage.svg" inkscape:output_extension="org.inkscape.output.svg.inkscape" x="0px" y="0px" width="117.83px" height="103.684px" viewBox="0 0 117.83 103.684" style="enable-background:new 0 0 117.83 103.684;" xml:space="preserve">
<sodipodi:namedview showgrid="false" objecttolerance="10.0" inkscape:window-y="0" inkscape:window-x="0" inkscape:window-height="875" inkscape:window-width="1107" inkscape:current-layer="Layer_1" pagecolor="#ffffff" inkscape:cy="51.841999" inkscape:cx="58.915001" inkscape:zoom="6.3847847" guidetolerance="10.0" inkscape:pageshadow="2" gridtolerance="10.0" inkscape:pageopacity="0.0" borderopacity="1.0" bordercolor="#666666" id="base">
	</sodipodi:namedview>
<g id="g4668" transform="translate(-53.333895,-10.380211)">
	<g id="use4594" transform="translate(505.271,100.1328)">
		<g id="g3437_11_" transform="translate(-495.6494,-311.9277)">
			<path id="path3424_11_" xlink:href="#path3422" style="fill:#FDEE1C;" d="M101.665,222.46c-1.881,0.291-3.535,1.402-4.48,3.047     l-52.633,91.188c-1.102,1.916-1.119,4.303,0,6.231c1.117,1.931,3.197,3.142,5.447,3.142H155.27c2.25,0,4.33-1.211,5.447-3.142     c1.118-1.93,1.102-4.315,0-6.231l-52.636-91.188C106.788,223.254,104.227,222.058,101.665,222.46z"/>
			<path id="path3432_11_" style="fill:#010101;" d="M102.148,225.034c-1.018,0.157-1.883,0.771-2.375,1.625l-53,91.812     c-0.58,1.01-0.582,2.307,0,3.312c0.592,1.021,1.686,1.689,2.875,1.688h106c1.191,0.002,2.283-0.666,2.875-1.688     c0.582-1.006,0.58-2.303,0-3.312l-53-91.812C104.844,225.474,103.528,224.818,102.148,225.034z M102.648,235.597l45,79.25H57.586     L102.648,235.597z"/>
		</g>
	</g>
	<path id="path2867" style="fill:#010101;stroke:#010101;stroke-width:0.8285;" d="M110.74,46.691h6.938l-9.667,22.18l13.761-5.573   l-6.877,25.67h2.441l-5.914,8.907l-3.186-9.213h2.502l4.777-16.721l-13.422,5.461L110.74,46.691z"/>
</g>
<metadata><rdf:RDF><cc:Work><dc:format>image/svg+xml</dc:format><dc:type rdf:resource="http://purl.org/dc/dcmitype/StillImage"/><cc:license rdf:resource="http://creativecommons.org/licenses/publicdomain/"/><dc:publisher><cc:Agent rdf:about="http://openclipart.org/"><dc:title>Open Clip Art Library</dc:title></cc:Agent></dc:publisher><dc:title>Signs Hazard Warning</dc:title><dc:date>2006-09-11T08:59:16</dc:date><dc:description/><dc:source>http://openclipart.org/detail/14427/signs-hazard-warning-by-h0us3s-14427</dc:source><dc:creator><cc:Agent><dc:title>h0us3s</dc:title></cc:Agent></dc:creator><dc:subject><rdf:Bag><rdf:li>clip art</rdf:li><rdf:li>clipart</rdf:li><rdf:li>hazard</rdf:li><rdf:li>hazard</rdf:li><rdf:li>image</rdf:li><rdf:li>media</rdf:li><rdf:li>png</rdf:li><rdf:li>public domain</rdf:li><rdf:li>sign</rdf:li><rdf:li>sign</rdf:li><rdf:li>svg</rdf:li><rdf:li>warning</rdf:li><rdf:li>warning</rdf:li></rdf:Bag></dc:subject></cc:Work><cc:License rdf:about="http://creativecommons.org/licenses/publicdomain/"><cc:permits rdf:resource="http://creativecommons.org/ns#Reproduction"/><cc:permits rdf:resource="http://creativecommons.org/ns#Distribution"/><cc:permits rdf:resource="http://creativecommons.org/ns#DerivativeWorks"/></cc:License></rdf:RDF></metadata></svg>
