<?xml version="1.0" encoding="UTF-8"?>
<!-- Generator: Adobe Illustrator 13.0.2, SVG Export Plug-In . SVG Version: 6.00 Build 14948)  -->
<svg xmlns="http://www.w3.org/2000/svg" xmlns:xlink="http://www.w3.org/1999/xlink" xmlns:svg="http://www.w3.org/2000/svg" xmlns:dc="http://purl.org/dc/elements/1.1/" xmlns:cc="http://web.resource.org/cc/" xmlns:rdf="http://www.w3.org/1999/02/22-rdf-syntax-ns#" version="1.2" baseProfile="tiny" id="Layer_1" x="0px" y="0px" width="94.263px" height="82.947px" viewBox="0 0 94.263 82.947" xml:space="preserve">
<path fill="#FDEE1C" d="M46.355,0.062c-1.504,0.232-2.826,1.121-3.582,2.438L0.666,75.449c-0.881,1.533-0.895,3.441,0,4.986  s2.559,2.514,4.357,2.512h84.214c1.801,0.002,3.465-0.967,4.359-2.512s0.881-3.453,0-4.986L51.489,2.5  C50.454,0.697,48.403-0.26,46.355,0.062L46.355,0.062z"/>
<path fill="#010101" d="M46.742,2.121c-0.812,0.127-1.506,0.617-1.898,1.301l-42.4,73.449c-0.465,0.809-0.467,1.846,0,2.65  c0.473,0.816,1.348,1.35,2.299,1.35h84.8c0.953,0,1.826-0.533,2.301-1.35c0.465-0.805,0.463-1.842,0-2.65l-42.4-73.449  C48.897,2.472,47.845,1.949,46.742,2.121L46.742,2.121z M47.142,10.57l36,63.4H11.093L47.142,10.57L47.142,10.57z"/>
<path fill="#010101" d="M55.88,39.468l-6.148,10.699c1.508,0.902,2.549,2.527,2.549,4.4c0,0.051,0.002,0.1,0,0.15h12.301  c0-0.051,0-0.1,0-0.15C64.581,48.134,61.077,42.494,55.88,39.468L55.88,39.468z M38.281,39.568c-5.131,3.043-8.6,8.615-8.6,15h12.35  c0-1.848,0.99-3.441,2.451-4.35L38.281,39.568L38.281,39.568z M44.531,58.968l-6.15,10.65c2.58,1.506,5.553,2.4,8.75,2.4  c3.134,0,6.056-0.848,8.601-2.301l-6.15-10.699c-0.738,0.4-1.555,0.648-2.451,0.648C46.177,59.667,45.292,59.419,44.531,58.968  L44.531,58.968z"/>
<path fill="#010101" d="M50.704,54.564c0,1.971-1.6,3.572-3.57,3.572c-1.971,0-3.572-1.602-3.572-3.572s1.602-3.57,3.572-3.57  C49.104,50.994,50.704,52.593,50.704,54.564L50.704,54.564z"/>
<metadata><rdf:RDF><cc:Work><dc:format>image/svg+xml</dc:format><dc:type rdf:resource="http://purl.org/dc/dcmitype/StillImage"/><cc:license rdf:resource="http://creativecommons.org/licenses/publicdomain/"/><dc:publisher><cc:Agent rdf:about="http://openclipart.org/"><dc:title>Open Clip Art Library</dc:title></cc:Agent></dc:publisher><dc:title>Signs Hazard Warning</dc:title><dc:date>2006-09-11T08:59:16</dc:date><dc:description/><dc:source>http://openclipart.org/detail/14469/signs-hazard-warning-by-h0us3s-14469</dc:source><dc:creator><cc:Agent><dc:title>h0us3s</dc:title></cc:Agent></dc:creator><dc:subject><rdf:Bag><rdf:li>clip art</rdf:li><rdf:li>clipart</rdf:li><rdf:li>hazard</rdf:li><rdf:li>hazard</rdf:li><rdf:li>image</rdf:li><rdf:li>media</rdf:li><rdf:li>png</rdf:li><rdf:li>public domain</rdf:li><rdf:li>sign</rdf:li><rdf:li>sign</rdf:li><rdf:li>svg</rdf:li><rdf:li>warning</rdf:li><rdf:li>warning</rdf:li></rdf:Bag></dc:subject></cc:Work><cc:License rdf:about="http://creativecommons.org/licenses/publicdomain/"><cc:permits rdf:resource="http://creativecommons.org/ns#Reproduction"/><cc:permits rdf:resource="http://creativecommons.org/ns#Distribution"/><cc:permits rdf:resource="http://creativecommons.org/ns#DerivativeWorks"/></cc:License></rdf:RDF></metadata></svg>
