<svg xml:space="preserve" viewBox="0 0 94.263 82.946" height="82.946px" width="94.263px" y="0px" x="0px" id="Layer_1" version="1.2" xmlns:xlink="http://www.w3.org/1999/xlink" xmlns="http://www.w3.org/2000/svg">
<path d="M46.356,0.061c-1.504,0.232-2.827,1.121-3.583,2.438L0.666,75.448c-0.88,1.533-0.895,3.443,0,4.986  c0.895,1.545,2.559,2.514,4.358,2.512h84.215c1.801,0.002,3.465-0.967,4.359-2.512c0.895-1.543,0.879-3.453,0-4.986L51.491,2.499  C50.456,0.696,48.405-0.259,46.356,0.061L46.356,0.061z" fill="#FDEE1C"></path>
<path d="M46.744,2.12c-0.814,0.127-1.508,0.617-1.9,1.301L2.443,76.87c-0.464,0.809-0.466,1.848,0,2.65  c0.474,0.816,1.348,1.352,2.3,1.35h84.801c0.951,0.002,1.826-0.533,2.299-1.35c0.467-0.803,0.465-1.842,0-2.65L49.444,3.42  C48.899,2.473,47.846,1.948,46.744,2.12L46.744,2.12z M47.143,10.571l36,63.4h-72.05L47.143,10.571L47.143,10.571z" fill="#010101"></path>
<path d="M37.844,69.043  c4.481-2.031,7.809-2.619,14.027-6.82l10.166-10.939c0.32-2.201-1.186-2.641-2.703-2.701l-11.71,12.354" stroke-miterlimit="10" stroke-linejoin="round" stroke-width="0.7954" stroke="#010101" fill="none"></path>
<path d="M59.204,48.704l2.447-2.695c0.547-2.91-1.537-3.617-3.604-2.832L44.15,57.204" stroke-miterlimit="10" stroke-linejoin="round" stroke-linecap="round" stroke-width="0.7954" stroke="#010101" fill="none"></path>
<path d="M53.475,47.567  l-3.148-2.074l-9.137,9.137 M50.231,45.465l-3.497-2.166l-8.504,8.113 M38.359,51.188l-0.644-5.824  c-0.584-3.082-4.747-3.717-5.533-0.771l0.258,16.215" stroke-miterlimit="10" stroke-linejoin="round" stroke-width="0.7954" stroke="#010101" fill="none"></path>
<path d="M43.831,42.114  c0.182,0,12.039,2.58,12.039,2.58 M55.477,44.434l1.912-7.598c-0.271-1.857-2.67-3.305-4.232-0.684l-1.783,7.58 M52.35,39.481  c0.225-3.225-4.175-3.383-4.797-0.812l-1.001,3.957" stroke-miterlimit="10" stroke-linejoin="round" stroke-width="0.3977" stroke="#010101" fill="none"></path>
<metadata>image/svg+xmlOpen Clip Art LibrarySigns Hazard Warning2006-09-11T08:59:16http://openclipart.org/detail/14454/signs-hazard-warning-by-h0us3s-14454h0us3sclip artcliparthazardhazardimagemediapngpublic domainsignsignsvgwarningwarning</metadata></svg>
