<svg xml:space="preserve" style="enable-background:new 0 0 117.829 103.684;" viewBox="0 0 117.829 103.684" height="103.684px" width="117.829px" y="0px" x="0px" id="Layer_1" version="1.1" xmlns:xlink="http://www.w3.org/1999/xlink" xmlns="http://www.w3.org/2000/svg">

	
<g transform="translate(-51.55391,-15.6573)" id="g7877">
	<g transform="translate(126.9291,205.5671)" id="use7850">
		<g transform="translate(-495.6494,-311.9277)" id="g3437_16_">
			<path d="M478.025,122.515c-1.881,0.291-3.534,1.401-4.479,3.048     l-52.635,91.188c-1.101,1.913-1.118,4.303,0,6.229c1.118,1.932,3.198,3.143,5.448,3.141h105.268     c2.25,0.002,4.332-1.209,5.449-3.141c1.117-1.93,1.103-4.316,0-6.229l-52.635-91.188     C483.149,123.309,480.583,122.112,478.025,122.515z" style="fill:#FDEE1C;" xlink:href="#path3422" id="path3424_16_"></path>
			<path d="M478.508,125.089c-1.018,0.157-1.884,0.771-2.375,1.625l-53,91.812     c-0.58,1.01-0.582,2.308,0,3.312c0.592,1.02,1.685,1.688,2.875,1.688h106c1.188,0,2.282-0.668,2.875-1.688     c0.581-1.007,0.579-2.304,0-3.312l-53-91.812C481.202,125.528,479.887,124.872,478.508,125.089z M479.008,135.651l45,79.251     h-90.062L479.008,135.651z" style="fill:#010101;" id="path3432_16_"></path>
		</g>
	</g>
	<g transform="matrix(0.414275,0,0,0.414275,312.931,216.1108)" id="g5856">
		<path d="M-407.455-321.803h-126.842" style="fill:none;stroke:#010101;stroke-width:4;" id="path5830"></path>
		<path d="M-486.801-374.793v104.609" style="fill:none;stroke:#010101;stroke-width:3;" id="path5832"></path>
		<path d="M-460.169-277.048l-51.779-89.688" style="fill:none;stroke:#010101;stroke-width:3;" id="path5834"></path>
		<path d="M-461.267-367.652l-51.312,88.879" style="fill:none;stroke:#010101;stroke-width:3;" id="path5836"></path>
		<path d="M-529.629-347.337l88.395,51.035" style="fill:none;stroke:#010101;stroke-width:3;" id="path5838"></path>
		<path d="M-443.144-348.438l-87.158,50.323" style="fill:none;stroke:#010101;stroke-width:3;" id="path5840"></path>
		<path d="M-495.31-355.024l17.617,65.756" style="fill:none;stroke:#010101;stroke-width:2;" id="path5842"></path>
		<path d="M-477.466-356.123l-18.334,68.439" style="fill:none;stroke:#010101;stroke-width:2;" id="path5844"></path>
		<path d="M-510.137-346.241l47.908,47.909" style="fill:none;stroke:#010101;stroke-width:2;" id="path5846"></path>
		<path d="M-462.912-345.965l-47.086,47.089" style="fill:none;stroke:#010101;stroke-width:2;" id="path5848"></path>
		<path d="M-518.373-331.411l62.985,16.878" style="fill:none;stroke:#010101;stroke-width:2;" id="path5850"></path>
		<path d="M-454.676-331.69l-62.936,16.869" style="fill:none;stroke:#010101;stroke-width:2;" id="path5852"></path>
		<path d="M-468.221-321.336c0.009,10.24-8.284,18.547-18.523,18.557    c-10.239,0.009-18.547-8.288-18.555-18.528c0-0.009,0-0.019,0-0.028c-0.009-10.24,8.286-18.547,18.527-18.557    c10.24-0.009,18.547,8.288,18.552,18.528C-468.221-321.355-468.221-321.346-468.221-321.336z" style="fill:#010101;" id="path5854"></path>
	</g>
</g>
<metadata>image/svg+xmlOpen Clip Art LibrarySigns Hazard Warning2006-09-11T08:59:16http://openclipart.org/detail/14429/signs-hazard-warning-by-h0us3s-14429h0us3sclip artcliparthazardhazardimagemediapngpublic domainsignsignsvgwarningwarning</metadata></svg>
