<svg xml:space="preserve" style="enable-background:new 0 0 117.829 103.684;" viewBox="0 0 117.829 103.684" height="103.684px" width="117.829px" y="0px" x="0px" id="Layer_1" version="1.1" xmlns:xlink="http://www.w3.org/1999/xlink" xmlns="http://www.w3.org/2000/svg">

	
<g transform="translate(-44.25663,-9.440477)" id="g7773">
	<path d="M104.845,75.169c-0.551,1.119-1.186,2.178-1.328,3.578c0.893,1.17,1.83,0.739,2.775,0   C106.094,77.414,105.579,76.236,104.845,75.169z" style="fill:#010101;" id="path3231"></path>
	<g transform="translate(270.3819,100.1328)" id="use4588">
		<g transform="translate(-495.6494,-311.9277)" id="g3437_14_">
			<path d="M327.456,221.225c-1.879,0.291-3.533,1.401-4.479,3.047     l-52.633,91.188c-1.102,1.916-1.119,4.304,0,6.232c1.117,1.93,3.197,3.141,5.447,3.141h105.27c2.25,0,4.328-1.211,5.447-3.141     s1.1-4.316,0-6.232l-52.636-91.188C332.581,222.019,330.017,220.823,327.456,221.225z" style="fill:#FDEE1C;" xlink:href="#path3422" id="path3424_14_"></path>
			<path d="M327.942,223.798c-1.018,0.157-1.883,0.771-2.375,1.625l-53,91.812     c-0.58,1.01-0.582,2.307,0,3.312c0.592,1.021,1.686,1.689,2.875,1.688h106c1.19,0.002,2.282-0.666,2.875-1.688     c0.582-1.006,0.58-2.303,0-3.312l-53-91.812C330.636,224.239,329.321,223.582,327.942,223.798z M328.442,234.362l45,79.25H283.38     L328.442,234.362z" style="fill:#010101;" id="path3432_14_"></path>
		</g>
	</g>
	<g transform="translate(6.647128,90.1886)" id="g7757">
		<path d="M101.618-39.505l-0.562,0.188l0.125,0.438l-14.375,3.375h-0.062    c-0.619,0.315-1.01,0.787-1.188,1.312c-0.18,0.525-0.18,1.116,0,1.625c0.357,1.02,1.316,1.836,2.5,1.75h0.062l14.25-3.062    l0.125,0.562l0.562-0.125L101.618-39.505z M101.305-38.255l0.938,3.812l-2.688,0.562H86.118c0.006-0.021-0.008-0.042,0-0.062    c0.129-0.38,0.377-0.746,0.875-1L101.305-38.255z" style="fill:#010101;" id="path7609"></path>
		<path d="M79.456-27.561l0.576,0.14l-0.088,0.446l14.609,2.146l0.062-0.008    c0.645,0.264,1.072,0.699,1.295,1.207c0.223,0.51,0.273,1.098,0.137,1.621c-0.27,1.045-1.156,1.94-2.342,1.955l-0.062,0.006    l-14.459-1.845l-0.076,0.57L78.536-21.4L79.456-27.561z M79.872-26.341l-0.609,3.877l2.725,0.334l13.389-1.142    c-0.008-0.02,0.004-0.043-0.004-0.062c-0.162-0.367-0.439-0.711-0.957-0.922L79.872-26.341z" style="fill:#010101;" id="path7717"></path>
		<path d="M64.618-3.818v4.75h23.375v-4.75h-7.125c-0.057,0.113-0.158,0.197-0.188,0.312    c-0.047,0.184-0.119,0.369-0.25,0.5c-0.086,0.086-0.303,0.151-0.375,0.25c-0.033,0.045-0.18,0.25-0.25,0.25c-0.17,0-0.33,0-0.5,0    c-0.166,0-0.309,0.026-0.438,0.125c-0.107,0.082-0.254,0.151-0.312,0.25c-0.084,0.141-0.248,0.274-0.312,0.438    c-0.027,0.07-0.062,0.25-0.188,0.25c-0.148,0-0.291,0-0.438,0c-0.088,0-0.303,0.056-0.375,0C77.155-1.509,77.04-1.63,76.931-1.63    c-0.143,0-0.307-0.052-0.375-0.188c-0.051-0.102-0.008-0.203-0.062-0.312c-0.049-0.099-0.133-0.201-0.188-0.312    c-0.055-0.106-0.121-0.188-0.25-0.188c-0.107,0-0.438,0.055-0.438-0.125c0-0.146-0.092-0.24-0.125-0.375    c-0.031-0.121-0.062-0.224-0.062-0.375c0-0.105,0-0.207,0-0.312L64.618-3.818L64.618-3.818z" style="fill:#010101;" id="rect7719"></path>
		<path d="M79.696-15.556c0,0.924-0.641,1.674-1.432,1.674s-1.432-0.75-1.432-1.674    c0-0.927,1.318-4.341,1.473-4.341C78.423-19.896,79.696-16.482,79.696-15.556z" style="fill:#010101;" id="path7724"></path>
		<path d="M79.321-6.932c0,0.925-0.641,1.675-1.432,1.675s-1.432-0.75-1.432-1.674    c0-0.927,1.318-4.341,1.473-4.341C78.048-11.271,79.321-7.857,79.321-6.932z" style="fill:#010101;" id="path7727"></path>
		<path d="M105.133-26.681c0,0.924-0.641,1.674-1.432,1.674s-1.432-0.75-1.432-1.674    c0-0.926,1.318-4.34,1.473-4.34C103.86-31.02,105.133-27.606,105.133-26.681z" style="fill:#010101;" id="path7729"></path>
		<path d="M105.008-15.806c0,0.924-0.641,1.674-1.432,1.674s-1.432-0.75-1.432-1.674    c0-0.927,1.318-4.341,1.473-4.341C103.735-20.146,105.008-16.732,105.008-15.806z" style="fill:#010101;" id="path7731"></path>
		<path d="M106.555-13.865c-0.741,0.051-0.879,0.416-0.75,0.922    c0.138,0.635,0.474,1.07,0.812,1.5c1.258,1.097,2.691,1.371,4.062,1.938v0.312h-5.188c-0.248,0.707-0.896,1.188-1.688,1.188    c-0.795,0-1.442-0.478-1.688-1.188h-0.438c-0.033,0.508-0.422,0.875-0.938,0.875c-0.519,0-0.969-0.367-1-0.875h-4.75    c-0.857,0-1.562,0.646-1.562,1.5c0,0.857,0.705,1.562,1.562,1.562h13.117c0.099,0.209,0.246,0.418,0.062,0.625H92.618    c-0.82,0-1.5,0.68-1.5,1.5c0,0.819,0.68,1.438,1.5,1.438h13.875c0.205,0.312,0.203,0.588-0.062,0.812H93.993    c-0.746,0-1.375,0.629-1.375,1.375s0.629,1.312,1.375,1.312h15.125c0.094,0.172,0.189,0.5,0,0.75H98.743    c-0.723,0-1.25,0.527-1.25,1.25c0,0.724,0.527,1.312,1.25,1.312h10.5V4.37c6.541,1.125,14.297,1.215,19.188-1.188V-8.505    c-5.354-2.447-11.254-3.699-17.188-4.875c-0.717,0.069-1.531-0.226-2.062,0.141C108.333-13.923,107.443-13.869,106.555-13.865z" style="fill:#010101;" id="rect7734"></path>
	</g>
</g>
<metadata>image/svg+xmlOpen Clip Art LibrarySigns Hazard Warning2006-09-11T08:59:16http://openclipart.org/detail/14424/signs-hazard-warning-by-h0us3s-14424h0us3sclip artcliparthazardhazardimagemediapngpublic domainsignsignsvgwarningwarning</metadata></svg>
