<svg xml:space="preserve" viewBox="0 0 94.264 82.949" height="82.949px" width="94.264px" y="0px" x="0px" id="Layer_1" version="1.1" xmlns:xlink="http://www.w3.org/1999/xlink" xmlns="http://www.w3.org/2000/svg">
<path d="M46.355,0.062c-1.504,0.233-2.826,1.122-3.582,2.438L0.666,75.451c-0.881,1.53-0.895,3.44,0,4.985  c0.896,1.545,2.56,2.515,4.357,2.513h84.214c1.801,0.002,3.465-0.968,4.359-2.513c0.894-1.545,0.881-3.455,0-4.985L51.489,2.499  C50.454,0.696,48.403-0.26,46.355,0.062L46.355,0.062z" fill="#FDEE1C"></path>
<path d="M46.742,2.121c-0.812,0.126-1.506,0.617-1.897,1.3l-42.4,73.452c-0.465,0.809-0.467,1.846,0,2.647  c0.473,0.817,1.348,1.353,2.299,1.353h84.8c0.953,0,1.826-0.533,2.302-1.353c0.465-0.804,0.463-1.84,0-2.647l-42.4-73.452  C48.897,2.473,47.845,1.948,46.742,2.121L46.742,2.121z M47.142,10.571l36,63.4h-72.05L47.142,10.571L47.142,10.571z" fill="#010101"></path>
<polygon points="31.207,68.237 63.054,68.237 63.054,70.787 31.207,70.787" fill="#010101"></polygon>
<path d="M37.792,64.688  c7.26-8.649-9.233-14.646,0-25.842 M46.164,64.688c7.261-8.649-9.233-14.646,0-25.842 M54.983,64.688  c7.26-8.649-9.236-14.646,0-25.842" stroke-miterlimit="10" stroke-width="1.7897" stroke="#010101" fill="none"></path>
<metadata>image/svg+xmlOpen Clip Art LibrarySigns Hazard Warning2006-09-11T08:59:16http://openclipart.org/detail/14432/signs-hazard-warning-by-h0us3s-14432h0us3sclip artcliparthazardhazardimagemediapngpublic domainsignsignsvgwarningwarning</metadata></svg>
