<svg xml:space="preserve" viewBox="0 0 94.264 82.947" height="82.947px" width="94.264px" y="0px" x="0px" id="Layer_1" version="1.2" xmlns:xlink="http://www.w3.org/1999/xlink" xmlns="http://www.w3.org/2000/svg">
<path d="M46.356,0.062C44.852,0.294,43.53,1.183,42.774,2.5L0.666,75.449c-0.88,1.533-0.895,3.441,0,4.986  c0.896,1.545,2.559,2.514,4.358,2.512H89.24c1.801,0.002,3.463-0.967,4.359-2.512c0.895-1.545,0.879-3.453,0-4.986L51.49,2.5  C50.455,0.697,48.405-0.26,46.356,0.062L46.356,0.062z" fill="#FDEE1C"></path>
<path d="M46.744,2.121c-0.814,0.127-1.508,0.617-1.9,1.301L2.444,76.871c-0.465,0.809-0.466,1.846,0,2.65  c0.474,0.816,1.348,1.35,2.3,1.35h84.801c0.951,0,1.826-0.533,2.299-1.35c0.467-0.805,0.465-1.842,0-2.65l-42.4-73.449  C48.899,2.472,47.846,1.947,46.744,2.121L46.744,2.121z M47.144,10.57l36,63.4H11.093L47.144,10.57L47.144,10.57z" fill="#010101"></path>
<path d="M46.932,34.322l-1.95,11.35l-8-8.35l4.5,10.65l-11.2-2.75l9.5,6.551l-10.899,3.75l11.5,0.35l-7.101,9.049  l9.9-5.898l-1.1,11.449l5.1-10.301l5.3,10.201l-1.301-11.451l9.951,5.75l-7.25-8.898l11.5-0.551l-10.951-3.6l9.402-6.701  l-11.152,2.9l4.25-10.65l-7.799,8.451L46.932,34.322L46.932,34.322z M47.132,46.023c3.514,0,6.35,2.836,6.35,6.35  s-2.836,6.4-6.35,6.4c-3.515,0-6.351-2.887-6.351-6.4S43.618,46.023,47.132,46.023L47.132,46.023z M47.132,46.972  c-3.002,0-5.4,2.398-5.4,5.4s2.398,5.449,5.4,5.449s5.451-2.447,5.451-5.449S50.134,46.972,47.132,46.972L47.132,46.972z" fill="#010101"></path>
<metadata>image/svg+xmlOpen Clip Art LibrarySigns Hazard Warning2006-09-11T08:59:16http://openclipart.org/detail/14467/signs-hazard-warning-by-h0us3s-14467h0us3sclip artcliparthazardhazardimagemediapngpublic domainsignsignsvgwarningwarning</metadata></svg>
